<?xml version="1.0" encoding="UTF-8"?>
<svg version="1.1" xmlns="http://www.w3.org/2000/svg" width="1846" height="633">
<path d="M0 0 C609.18 0 1218.36 0 1846 0 C1846 208.89 1846 417.78 1846 633 C1236.82 633 627.64 633 0 633 C0 424.11 0 215.22 0 0 Z " fill="#FDCE01" transform="translate(0,0)"/>
<path d="M0 0 C3.56579538 2.4093212 6.95202011 4.95202011 10 8 C10.33 4.7 10.66 1.4 11 -2 C24.53 -2 38.06 -2 52 -2 C52.06799535 13.23932695 52.12314267 28.47858444 52.15543652 43.71802521 C52.17083665 50.79563366 52.19179316 57.87314045 52.22631836 64.95068359 C52.25643268 71.12701064 52.27562465 77.30326398 52.28226548 83.47966242 C52.28614092 86.74321409 52.2967317 90.00650863 52.31719017 93.27000427 C52.58022482 137.00010583 52.58022482 137.00010583 37 153 C26.91099774 161.83180572 14.98472973 167.03354872 2 170 C3.65307481 171.65307481 5.66908183 171.28468612 7.94921875 171.4296875 C9.53802856 171.53639771 9.53802856 171.53639771 11.15893555 171.64526367 C12.32336182 171.72107666 13.48778809 171.79688965 14.6875 171.875 C36.97954301 173.46654991 58.92088868 175.60266396 80.9375 179.4375 C81.77944916 179.58271088 82.62139832 179.72792175 83.48886108 179.87753296 C91.85148653 181.3317558 100.19150675 182.9046421 108.44140625 184.91015625 C109.61517822 185.19125244 110.7889502 185.47234863 111.99829102 185.76196289 C115.56198167 187.23178601 116.93447999 188.78521064 119 192 C119.5625 194.5625 119.5625 194.5625 119 197 C116.23785449 199.96492206 114.00034261 201.25530668 110.02734375 201.6015625 C108.33115587 201.64040519 106.63401365 201.64508806 104.9375 201.625 C103.98012939 201.62097168 103.02275879 201.61694336 102.03637695 201.61279297 C88.03352265 201.26032079 74.14076897 198.93173236 60.30335999 196.90707397 C52.61345862 195.7820749 44.92297208 194.67480943 37.20703125 193.7421875 C36.50744797 193.65043243 35.80786469 193.55867737 35.08708191 193.46414185 C31.53905271 193.05550457 28.33764575 193.0140742 24.79489136 193.50523376 C20.2066951 194.04689055 15.83028985 193.9725903 11.2277832 193.6862793 C10.39993317 193.64087006 9.57208313 193.59546082 8.71914673 193.54867554 C5.99590993 193.39756571 3.27340842 193.2359118 0.55078125 193.07421875 C-1.3855262 192.96480559 -3.32187265 192.85608054 -5.258255 192.7480011 C-10.36827997 192.46103811 -15.47775607 192.16525326 -20.5871582 191.86743164 C-25.6418142 191.57407929 -30.69688548 191.28810952 -35.75195312 191.00195312 C-41.72616292 190.66335174 -47.70035066 190.32439903 -53.6743927 189.98284912 C-141.83617454 184.94608442 -229.87533598 183.15967367 -379.38250732 189.80859375 C-384.08655576 190.05749108 -388.79094674 190.29949029 -393.49536133 190.54135132 C-408.66574988 191.32230658 -423.83358728 192.14538676 -439 193 C-439.68865395 193.03877762 -440.37730789 193.07755524 -441.08683014 193.11750793 C-450.83113623 193.66669976 -460.57468679 194.22780565 -470.3175354 194.80227661 C-473.24298438 194.97463203 -476.16857329 195.14419779 -479.09432983 195.31124878 C-483.18314692 195.54500892 -487.27125072 195.789576 -491.359375 196.03515625 C-492.56320328 196.10280182 -493.76703156 196.17044739 -495.00733948 196.24014282 C-501.58190414 196.64525681 -507.96540797 197.37732654 -514.44294739 198.58421326 C-518.01586841 199.16518417 -521.31873553 199.1215115 -524.9375 199 C-532.93026138 198.83889063 -540.5334484 199.81611351 -548.33691406 201.50610352 C-551.03224712 202.00598056 -553.64490142 202.24998711 -556.37890625 202.4375 C-563.60727147 203.00295806 -570.75709434 204.01072349 -577.9375 205 C-587.96439264 206.36231291 -597.91736027 207.49191341 -608.05249023 207.58398438 C-613.59772 207.69363749 -618.48378182 208.82205665 -623.83422852 210.24926758 C-629.2034005 211.52251535 -634.64200144 212.01678342 -640.125 212.5625 C-647.08666445 213.27495104 -653.91306885 214.08747303 -660.76123047 215.54272461 C-666.05247529 216.62347723 -671.44735521 217.12092245 -676.80859375 217.74121094 C-679.03060081 218.00361373 -681.24949196 218.28566853 -683.46875 218.5703125 C-693.36356617 219.80156308 -703.03274929 220.24442849 -713 220 C-713 220.66 -713 221.32 -713 222 C-713.65597168 222.08564209 -714.31194336 222.17128418 -714.98779297 222.25952148 C-717.950697 222.64846501 -720.91284253 223.04291273 -723.875 223.4375 C-724.90753906 223.57220703 -725.94007813 223.70691406 -727.00390625 223.84570312 C-727.99003906 223.97783203 -728.97617187 224.10996094 -729.9921875 224.24609375 C-731.35899658 224.42676392 -731.35899658 224.42676392 -732.75341797 224.61108398 C-735.02733424 224.89362951 -735.02733424 224.89362951 -737 226 C-740.11416042 226.24126924 -743.22744855 226.38245309 -746.34765625 226.5234375 C-749.29911314 226.90854738 -751.28297282 227.40216734 -754.00341797 228.41577148 C-759.44990923 230.272012 -764.90977186 231.0607449 -770.59765625 231.82421875 C-771.67252792 231.97534622 -772.7473996 232.12647369 -773.85484314 232.28218079 C-777.25634235 232.75858596 -780.65932646 233.2232228 -784.0625 233.6875 C-786.38227 234.01028863 -788.7019328 234.33384865 -791.02148438 234.65820312 C-796.67978061 235.44772623 -802.33933981 236.22761839 -808 237 C-801.23687354 236.16728359 -794.47423196 235.3307122 -787.71191406 234.49145508 C-785.41124284 234.20638601 -783.11046194 233.92220064 -780.80957031 233.63891602 C-777.50296283 233.23165267 -774.19676237 232.82121629 -770.890625 232.41015625 C-769.86132874 232.28407486 -768.83203247 232.15799347 -767.77154541 232.02809143 C-766.81085144 231.90804245 -765.85015747 231.78799347 -764.86035156 231.66430664 C-764.01651917 231.5599379 -763.17268677 231.45556915 -762.30328369 231.34803772 C-760.15197202 231.02296373 -758.10687704 230.53329102 -756 230 C-754.41307361 229.92133041 -752.82321751 229.89215886 -751.234375 229.90234375 C-750.34492187 229.90556641 -749.45546875 229.90878906 -748.5390625 229.91210938 C-747.61867188 229.92048828 -746.69828125 229.92886719 -745.75 229.9375 C-744.34621094 229.94426758 -744.34621094 229.94426758 -742.9140625 229.95117188 C-740.60930959 229.96293082 -738.30468773 229.97936574 -736 230 C-736 229.34 -736 228.68 -736 228 C-732.7 228 -729.4 228 -726 228 C-725.67 227.34 -725.34 226.68 -725 226 C-722.68058235 225.7436752 -720.34760512 225.60869821 -718.015625 225.5234375 C-712.16231275 225.24804846 -706.40925204 224.75227366 -700.609375 223.9140625 C-699.90027985 223.81204025 -699.19118469 223.71001801 -698.46060181 223.60490417 C-696.98756419 223.39104171 -695.51471676 223.17586554 -694.04205322 222.95944214 C-680.7634254 221.02190742 -667.50376072 219.47312231 -654.125 218.4375 C-651.14320571 218.20472661 -648.16142734 217.97175108 -645.1796875 217.73828125 C-644.43430725 217.68000153 -643.688927 217.6217218 -642.92095947 217.56167603 C-634.02027545 216.85690635 -625.1336895 216.01725115 -616.25 215.125 C-615.43120361 215.04324524 -614.61240723 214.96149048 -613.76879883 214.8772583 C-602.63673871 213.75134345 -591.65088114 212.200601 -580.625 210.3125 C-566.81839723 207.96234759 -553.34682778 207.40462891 -539.37890625 207.16796875 C-530.49255834 207.01006389 -521.80569916 206.12991081 -513 205 C-469.85014228 199.54704167 -426.2523186 197.39048322 -382.82958984 195.37207031 C-377.56588774 195.12601887 -372.30346304 194.86162183 -367.04150391 194.58105469 C-321.03938126 192.14085421 -275.07081546 191.72527783 -229.01494551 191.74893522 C-226.75845936 191.74999602 -224.50197356 191.75055953 -222.24548721 191.75101089 C-212.87417856 191.7534405 -203.50294901 191.76732888 -194.1316731 191.7920258 C-192.15129589 191.79677448 -190.17091505 191.79992336 -188.19053459 191.80303764 C-174.02365094 191.82956365 -159.88805554 192.01447604 -145.73415756 192.65461349 C-137.59497008 193.01880951 -129.48494879 193.05005141 -121.33984375 192.9375 C-118.43037807 192.93385324 -115.63049973 193.12054815 -112.74414062 193.48144531 C-108.41048462 193.98250306 -104.11218781 194.22008656 -99.75390625 194.359375 C-98.12382499 194.42011089 -96.49378087 194.48184929 -94.86376953 194.54443359 C-94.00350159 194.57720398 -93.14323364 194.60997437 -92.25689697 194.64373779 C-74.27933914 195.35274058 -56.35431715 196.54749394 -38.42648315 198.05529785 C-35.92510621 198.26566195 -33.42342007 198.4723866 -30.92141724 198.6751709 C-18.91684044 199.65569655 -6.99847171 200.77219467 4.8515625 202.9765625 C5.69681488 203.13192474 6.54206726 203.28728699 7.41293335 203.44735718 C13.30810642 204.62947775 18.50492348 205.75738522 22 211 C22.46021936 216.6146762 22.15793998 220.15030646 19 225 C15.6751627 228.19608506 13.22374814 228.38051756 8.6875 228.3125 C2.36096236 228.18192131 -3.75590343 227.43324409 -10.0078125 226.50390625 C-14.3690482 225.90224354 -18.72969039 225.69550115 -23.125 225.5 C-29.50877054 225.20921527 -35.68241239 224.53609867 -41.9921875 223.4765625 C-49.26317286 222.32453625 -56.45861178 221.95324223 -63.8125 222.0625 C-68.62214297 222.11403189 -72.39345457 221.44519072 -77 220 C-78.39441472 219.93372554 -79.79170081 219.91449232 -81.1875 219.9375 C-85 220 -85 220 -86.84814453 219.5078125 C-89.68903282 218.83739638 -92.32414173 218.90685988 -95.2421875 218.9375 C-96.47453125 218.94523438 -97.706875 218.95296875 -98.9765625 218.9609375 C-101.53646228 218.9865878 -104.0963583 219.01261734 -106.65625 219.0390625 C-112.58784449 219.0759047 -118.4462541 219.02091191 -124.359375 218.53125 C-136.47500411 217.56186314 -148.65589283 217.63287914 -160.80322266 217.44775391 C-164.12669634 217.39578738 -167.45005448 217.33868242 -170.7734375 217.28125 C-171.78191742 217.26767456 -172.79039734 217.25409912 -173.82943726 217.2401123 C-178.06571338 217.16597423 -182.19351944 217.03093632 -186.38916016 216.41992188 C-189.80412713 215.83443961 -189.80412713 215.83443961 -192.35786438 216.47338867 C-195.28664304 217.05713161 -197.90029136 217.07325962 -200.88500977 217.00585938 C-202.04714493 216.9825354 -203.20928009 216.95921143 -204.40663147 216.93518066 C-205.65560715 216.90500854 -206.90458282 216.87483643 -208.19140625 216.84375 C-210.17270346 216.80403524 -212.15400085 216.76432774 -214.13530636 216.72502899 C-218.30825135 216.64053303 -222.48099407 216.54659589 -226.65374756 216.45318604 C-230.07931612 216.3767229 -233.50489476 216.30268021 -236.9306488 216.23498535 C-239.4941313 216.1838649 -242.05751572 216.12745103 -244.6207428 216.06481934 C-251.30543753 215.93315778 -257.83210834 216.11051142 -264.48616028 216.78414917 C-267.74205528 217.06371657 -270.87408426 216.92053779 -274.125 216.625 C-275.20007812 216.53476562 -276.27515625 216.44453125 -277.3828125 216.3515625 C-280 216 -280 216 -282 215 C-282.5775 215.144375 -283.155 215.28875 -283.75 215.4375 C-286.53580983 216.13395246 -289.137447 216 -292 216 C-292.66 216.33 -293.32 216.66 -294 217 C-296.05082966 217.07468426 -298.10416595 217.08326308 -300.15625 217.0625 C-301.46916016 217.05404053 -302.78207031 217.04558105 -304.13476562 217.03686523 C-304.84415283 217.03065155 -305.55354004 217.02443787 -306.28442383 217.01803589 C-321.02879366 216.89800941 -335.75978502 217.09108354 -350.5 217.4375 C-351.85266968 217.46710815 -351.85266968 217.46710815 -353.23266602 217.49731445 C-365.60334079 217.74310878 -365.60334079 217.74310878 -377.92773438 218.76586914 C-381.44214483 219.1629379 -384.96913641 219.31729786 -388.5 219.5 C-397.22695101 219.99699634 -405.56787283 220.66388741 -414.125 222.5625 C-421.08719552 224.02859814 -427.53922066 224.21842075 -434.63671875 224.0078125 C-437.78792994 223.85818472 -437.78792994 223.85818472 -439.91886902 224.49888611 C-442.25974271 225.06254324 -444.25479788 225.06648149 -446.66137695 225.01000977 C-454.595191 224.93928702 -462.49885865 225.41646264 -470.41796875 225.83984375 C-472.08701207 225.92729723 -473.75606438 226.01457946 -475.42512512 226.10169983 C-478.90387992 226.28394367 -482.38251752 226.46824983 -485.86108398 226.65405273 C-490.30231133 226.89110716 -494.74379256 227.12295503 -499.18537426 227.3532629 C-502.62485358 227.5321893 -506.06418256 227.71388226 -509.50347328 227.89639473 C-511.14076604 227.98295197 -512.77810373 228.06866404 -514.41548729 228.15348625 C-516.7070823 228.27261419 -518.99844841 228.3954826 -521.28979492 228.51928711 C-522.58898361 228.58812607 -523.8881723 228.65696503 -525.22673035 228.72789001 C-529.1838143 229.0132558 -533.06744424 229.48042413 -537 230 C-541.76758799 230.51207556 -546.53998165 230.97381164 -551.3125 231.4375 C-551.99228912 231.50380615 -552.67207825 231.5701123 -553.37246704 231.63842773 C-563.90022322 232.66107933 -574.43095272 233.49795443 -584.98339844 234.22802734 C-593.20045237 234.81669369 -601.37582734 235.6477264 -609.5625 236.5625 C-639.02269911 239.82955015 -639.02269911 239.82955015 -650 238 C-650 238.66 -650 239.32 -650 240 C-652.66650463 240.16968666 -655.33315526 240.33581821 -658 240.5 C-659.11568359 240.57154297 -659.11568359 240.57154297 -660.25390625 240.64453125 C-663.97200811 240.87085049 -667.65345633 241.01647394 -671.37890625 240.96875 C-674.94581611 240.80996457 -674.94581611 240.80996457 -677.9375 242 C-680.75182009 242.91896166 -682.25305593 243.0824975 -685.125 243 C-688.62156978 242.90550837 -691.75206494 243.24842978 -695.18359375 243.91015625 C-702.58851788 245.19360118 -710.00213968 245.72498024 -717.4899292 246.26068115 C-721.69380832 246.56438026 -725.89562745 246.89449513 -730.09765625 247.22265625 C-730.93856812 247.28815674 -731.77947998 247.35365723 -732.64587402 247.42114258 C-757.52580241 248.77461936 -757.52580241 248.77461936 -781.4453125 255.01171875 C-784.624675 255.8956514 -786.5428934 256.07276809 -789.76171875 255.98828125 C-798.16373455 255.80235147 -806.39774193 257.28248009 -814.6875 258.5 C-816.37164415 258.74158802 -818.05588847 258.98247888 -819.74023438 259.22265625 C-823.82802148 259.80707703 -827.91433934 260.40090149 -832 261 C-809.93604871 260.11864452 -787.89384588 259.12694883 -765.875 257.4375 C-764.6209436 257.34159073 -764.6209436 257.34159073 -763.34155273 257.2437439 C-760.95404409 257.05971022 -758.56679592 256.87274414 -756.1796875 256.68359375 C-755.15408218 256.60241302 -755.15408218 256.60241302 -754.10775757 256.51959229 C-745.22905721 255.79816992 -736.40056483 254.82250868 -727.5703125 253.65234375 C-696.10708418 249.58203013 -664.60629014 246.4743602 -633 243.75 C-631.06138074 243.58210575 -629.12276176 243.41420825 -627.18414307 243.24630737 C-606.61997279 241.47024542 -586.04886561 239.81250866 -565.4609375 238.3359375 C-564.61887756 238.27524834 -563.77681763 238.21455917 -562.90924072 238.15203094 C-524.8331708 235.42176557 -486.63290573 233.68572325 -448.45288086 234.03662109 C-447.25026611 234.04516113 -446.04765137 234.05370117 -444.80859375 234.0625 C-443.75470459 234.07410156 -442.70081543 234.08570313 -441.61499023 234.09765625 C-438.88707533 234.11824944 -438.88707533 234.11824944 -436 233 C-433.86421337 232.88216655 -431.7250276 232.82308916 -429.58618164 232.79467773 C-428.93821625 232.78477814 -428.29025085 232.77487854 -427.62265015 232.76467896 C-425.46852274 232.7329915 -423.31437517 232.70821288 -421.16015625 232.68359375 C-419.63967907 232.66296592 -418.11920687 232.64196819 -416.59873962 232.62062073 C-413.39162192 232.57658336 -410.18448493 232.53572122 -406.97729492 232.49731445 C-402.95573183 232.44910192 -398.93427141 232.39530309 -394.91280937 232.33935165 C-368.35533582 231.97126069 -341.80592838 231.77053671 -315.25 232.375 C-314.29552979 232.39578613 -313.34105957 232.41657227 -312.35766602 232.43798828 C-295.01939349 232.82142129 -277.69971443 233.5034282 -260.37475586 234.27124023 C-249.25736481 234.76071685 -238.14709815 235.15458465 -227.02154541 235.390625 C-208.02943056 235.79362956 -189.06937402 236.73590944 -170.09927368 237.70571899 C-153.87494183 238.53471396 -137.660277 239.32812643 -121.41845703 239.70898438 C-116.23659912 239.83497766 -111.09824758 240.05044896 -105.93334961 240.49780273 C-99.264146 241.02282251 -92.62892166 241.18454402 -85.94140625 241.24609375 C-83.4430295 241.27756989 -80.94465723 241.30940309 -78.44628906 241.34155273 C-77.15758911 241.35693085 -75.86888916 241.37230896 -74.5411377 241.38815308 C-55.26763566 241.62720174 -36.00145881 241.9331039 -16.75 242.9375 C-15.98043976 242.97511444 -15.21087952 243.01272888 -14.41799927 243.05148315 C0.88203835 243.81610075 0.88203835 243.81610075 7 246 C9.73142209 250.09713313 9.59179886 253.19552767 9 258 C7.93350083 262.27361454 6.38003637 265.04768038 2.71875 267.57421875 C-8.30379068 273.36769269 -23.84715202 274.16102821 -35.8125 270.625 C-36.59407471 270.36227295 -37.37564941 270.0995459 -38.1809082 269.82885742 C-49.21844205 266.5836485 -61.20176434 266.50336069 -72.625 265.9375 C-74.91515184 265.82137486 -77.20515316 265.70336499 -79.4949646 265.58070374 C-81.54540293 265.47118182 -83.59618147 265.36808384 -85.64697266 265.26538086 C-89 265 -89 265 -90.95410156 264.50672913 C-93.02960295 263.99266793 -94.95610085 263.77432494 -97.08740234 263.62695312 C-97.88278412 263.57019409 -98.67816589 263.51343506 -99.49765015 263.45495605 C-100.35178497 263.39763306 -101.2059198 263.34031006 -102.0859375 263.28125 C-102.97930817 263.21844849 -103.87267883 263.15564697 -104.79312134 263.09094238 C-107.65352615 262.89061849 -110.5142425 262.69521597 -113.375 262.5 C-115.26174167 262.36881882 -117.14846071 262.2373117 -119.03515625 262.10546875 C-121.80724569 261.9117602 -124.57938382 261.71919543 -127.35183716 261.53076172 C-131.17956 261.27036946 -135.00401076 260.99966846 -138.82763672 260.68359375 C-149.14591109 259.83580265 -159.41102156 259.93134501 -169.75390625 260.02050781 C-179.32157024 260.09537833 -188.77077226 259.89565689 -198.31518555 259.21899414 C-201.60037173 259.02375052 -204.83168239 258.96383678 -208.12109375 258.99609375 C-216.75427784 259.06893086 -225.36456485 258.59624897 -233.98638916 258.20263672 C-247.89585733 257.5689706 -261.80063861 256.9801113 -275.72265625 256.71484375 C-277.23845024 256.68548485 -277.23845024 256.68548485 -278.78486633 256.65553284 C-283.61047072 256.56536278 -288.43588516 256.48932577 -293.26196289 256.42993164 C-295.00016563 256.40137863 -296.73836567 256.37266061 -298.4765625 256.34375 C-299.25568497 256.33854843 -300.03480743 256.33334686 -300.83753967 256.32798767 C-305.27510123 256.24568146 -308.85680425 255.56078243 -313 254 C-315.79265676 253.68698954 -315.79265676 253.68698954 -318.625 253.75 C-319.54539062 253.74484375 -320.46578125 253.7396875 -321.4140625 253.734375 C-324.52016195 253.96445644 -327.36976412 254.43138057 -330.421875 255.01171875 C-337.82457842 256.29849663 -345.13661712 256.18697324 -352.625 256.0625 C-355.30469486 256.0260825 -357.98421298 255.99803867 -360.6640625 255.97265625 C-361.83404785 255.95468994 -363.0040332 255.93672363 -364.20947266 255.91821289 C-366.95635215 255.80283513 -366.95635215 255.80283513 -369 257 C-371.60818221 257.07488321 -374.18943312 257.0911555 -376.796875 257.0625 C-377.58209534 257.05871338 -378.36731567 257.05492676 -379.17633057 257.05102539 C-382.53282185 257.03475713 -385.88919077 257.00707376 -389.24560547 256.97949219 C-391.70019821 256.96104755 -394.15473293 256.94733184 -396.609375 256.9375 C-397.41105103 256.93427734 -398.21272705 256.93105469 -399.03869629 256.92773438 C-405.11039983 256.93269821 -411.08052182 257.28768158 -417.12597656 257.87890625 C-419.97834255 257.99908749 -422.22279765 257.58957985 -425 257 C-426.81644892 256.9742015 -428.63434962 257.00592323 -430.44921875 257.0859375 C-431.46177734 257.12976563 -432.47433594 257.17359375 -433.51757812 257.21875 C-434.56365234 257.2703125 -435.60972656 257.321875 -436.6875 257.375 C-438.27401367 257.44074219 -438.27401367 257.44074219 -439.89257812 257.5078125 C-445.11445132 257.53588189 -445.11445132 257.53588189 -450 259 C-463.72894494 260.55083349 -477.64921965 260.08409319 -491.4375 260 C-495.87369566 259.97324331 -500.30984726 259.95336069 -504.74609375 259.9375 C-506.24166054 259.92505249 -506.24166054 259.92505249 -507.7674408 259.91235352 C-512.96296611 259.8942638 -517.96694965 260.11384669 -523.10951233 260.88110352 C-525.97807021 261.06151276 -528.33241672 259.97003028 -531 259 C-532.67178111 259.3066542 -534.3379979 259.64413781 -536 260 C-537.980733 260.12338596 -539.96446358 260.20281013 -541.94848633 260.24951172 C-543.12353226 260.27979462 -544.29857819 260.31007751 -545.50923157 260.34127808 C-547.40151741 260.38504074 -547.40151741 260.38504074 -549.33203125 260.4296875 C-551.3273366 260.48448959 -553.32264165 260.5393084 -555.31791973 260.59509468 C-560.22383696 260.7314981 -565.129885 260.86018513 -570.03637695 260.97412109 C-572.7925541 261.03853001 -575.54835019 261.11035726 -578.30412292 261.19021606 C-580.89375869 261.26497238 -583.48373299 261.32898858 -586.07392883 261.38082886 C-592.77519007 261.58781916 -597.860751 262.32441604 -604 265 C-607.95703125 265.328125 -607.95703125 265.328125 -611.8125 265.25 C-613.09769531 265.23453125 -614.38289063 265.2190625 -615.70703125 265.203125 C-619 265 -619 265 -622 264 C-629.76376704 263.41320365 -637.09490873 264.0595884 -644.71875 265.40234375 C-654.03598415 266.95317857 -663.33689186 267.84641816 -672.74804688 268.5925293 C-695.87901082 270.44144684 -718.8854882 273.13681002 -741.91900635 275.92025757 C-753.54265859 277.31805895 -765.18149726 278.56783931 -776.82421875 279.79492188 C-777.53584167 279.87026657 -778.2474646 279.94561127 -778.98065186 280.02323914 C-780.85966742 280.22180071 -782.73890617 280.41824711 -784.61816406 280.61450195 C-786.94843369 280.88013116 -789.27430808 281.18640812 -791.5949707 281.52587891 C-794.56917479 281.94001129 -797.46925915 282.18292422 -800.46484375 282.34765625 C-810.90208213 283.11354143 -821.22302514 284.86321611 -831.5625 286.4375 C-833.66595497 286.753659 -835.76947027 287.06941694 -837.87304688 287.38476562 C-851.43065384 289.42533788 -864.95390461 291.56200988 -878.421875 294.13671875 C-879.99679466 294.43670525 -879.99679466 294.43670525 -881.60353088 294.74275208 C-884.98616567 295.3885322 -888.36818446 296.03744385 -891.75 296.6875 C-893.49789322 297.02322021 -893.49789322 297.02322021 -895.28109741 297.36572266 C-911.13731696 300.41741651 -926.93663284 303.6171789 -942.69140625 307.15625 C-949.25079107 308.62683896 -955.82325355 310.02665394 -962.40234375 311.40625 C-988.66175368 316.91682686 -1014.75046183 322.66675347 -1040.55859375 330.0546875 C-1045.79640115 331.49344958 -1050.54924262 332.57376393 -1056 332 C-1059.76826697 329.84916269 -1062.40798787 327.04182074 -1064 323 C-1064.60835082 318.18978418 -1065.09637977 313.56625682 -1062.25 309.5 C-1061.5075 309.005 -1060.765 308.51 -1060 308 C-1058.88625 307.13375 -1058.88625 307.13375 -1057.75 306.25 C-1057.1725 305.8375 -1056.595 305.425 -1056 305 C-1058.97 305 -1061.94 305 -1065 305 C-1067.77222502 298.87800308 -1069.38201507 292.7359632 -1068 286 C-1064.76132642 282.30842484 -1059.85135591 281.79305429 -1055.25 280.8125 C-1054.45722656 280.63525391 -1053.66445312 280.45800781 -1052.84765625 280.27539062 C-1050.90039924 279.84136346 -1048.95044396 279.41947321 -1047 279 C-1047.05800781 277.96359375 -1047.11601563 276.9271875 -1047.17578125 275.859375 C-1047.22269038 274.48962844 -1047.26818932 273.11983308 -1047.3125 271.75 C-1047.35439453 271.06808594 -1047.39628906 270.38617187 -1047.43945312 269.68359375 C-1047.52606846 266.11504176 -1047.32498707 264.3754161 -1044.9609375 261.64453125 C-1041.50058487 259.72262035 -1038.15164404 258.73748779 -1034.3125 257.9375 C-1033.5800708 257.7739502 -1032.8476416 257.61040039 -1032.09301758 257.44189453 C-1025.73570457 256.0608951 -1019.32612765 254.98055629 -1012.88989258 254.03881836 C-1008.8338992 253.45467645 -1008.8338992 253.45467645 -1005.04370117 251.98388672 C-1002.75559664 250.88233837 -1001.09549173 250.69507002 -998.5703125 250.546875 C-992.20847644 250.01187599 -986.09788787 248.63728176 -979.875 247.25 C-977.35295391 246.70011099 -974.83081714 246.15063772 -972.30859375 245.6015625 C-971.06319824 245.32860352 -969.81780273 245.05564453 -968.53466797 244.77441406 C-947.59720626 240.18720391 -926.54950111 236.25469078 -905.47091675 232.37921143 C-901.62100465 231.67092867 -897.77185052 230.9598078 -893.92651367 230.22705078 C-882.41450732 228.03659938 -870.86712734 226.07590872 -859.3125 224.125 C-855.10536052 223.4133988 -850.89834853 222.70104729 -846.69140625 221.98828125 C-845.66719574 221.81485703 -844.64298523 221.6414328 -843.58773804 221.4627533 C-837.96000207 220.5081341 -832.33555132 219.53813147 -826.71484375 218.54296875 C-812.70915299 216.06434766 -798.6873807 213.90508748 -784.60253906 211.94018555 C-774.82082197 210.57135639 -765.06644394 209.07571213 -755.31625366 207.4987793 C-715.05421229 201.00159906 -674.59023844 195.96322343 -634.09236145 191.19328308 C-628.00972122 190.47672998 -621.92847975 189.75095191 -615.84953308 189.00370789 C-565.01701247 182.75731133 -513.94578804 178.13093129 -462.85496521 174.62303162 C-456.69047843 174.197747 -450.53004035 173.73377276 -444.37010193 173.24714661 C-430.42213707 172.14642688 -416.4703566 171.2614394 -402.5 170.5 C-401.34437561 170.43652374 -400.18875122 170.37304749 -398.99810791 170.30764771 C-368.04639227 168.61595901 -337.08608044 167.36470253 -306.1015625 166.46875 C-305.33178951 166.44643373 -304.56201653 166.42411747 -303.76891708 166.40112495 C-296.08602674 166.1787879 -288.40306606 165.96022582 -280.71967125 165.7559948 C-277.85503546 165.67936317 -274.99047779 165.60003192 -272.12592697 165.52029419 C-270.15869816 165.46661594 -268.1913642 165.41683515 -266.22402954 165.3671875 C-260.19218856 165.19848589 -254.25382047 164.86368764 -248.25704956 164.20396423 C-244.63760943 163.87688398 -241.05481674 163.94940837 -237.42578125 164.05078125 C-236.58892792 164.0689238 -235.75207458 164.08706635 -234.88986206 164.10575867 C-232.03058309 164.16902868 -229.17158128 164.24088519 -226.3125 164.3125 C-224.21201 164.360665 -222.11150459 164.40816183 -220.01098633 164.45507812 C-216.39982663 164.53599316 -212.78869097 164.61764132 -209.17759705 164.70144653 C-198.02092817 164.96030879 -186.86375131 165.19093206 -175.70637703 165.41713524 C-169.38674809 165.5454006 -163.0671472 165.67504267 -156.74754238 165.80449009 C-151.47938096 165.91236015 -146.21121226 166.0198369 -140.94302368 166.12637329 C-134.91378932 166.24858702 -128.88460635 166.37310222 -122.85546875 166.5 C-121.89084465 166.52028511 -120.92622055 166.54057022 -119.93236542 166.56147003 C-107.01971121 166.83611005 -94.11587262 167.20731849 -81.20922852 167.68858337 C-72.36301443 168.01095755 -63.53940306 168.12252855 -54.6875 168.0625 C-53.32617365 168.05743931 -51.96484533 168.05288501 -50.60351562 168.04882812 C-47.40228705 168.03743585 -44.20117506 168.0212953 -41 168 C-41.73532959 167.6702417 -42.47065918 167.3404834 -43.22827148 167.00073242 C-44.69115601 166.3410144 -44.69115601 166.3410144 -46.18359375 165.66796875 C-47.14579834 165.23508545 -48.10800293 164.80220215 -49.09936523 164.35620117 C-61.55459519 158.5327181 -72.71023469 149.67209905 -77.9609375 136.609375 C-79.14145801 133.25193134 -80 130.58072514 -80 127 C-73.52244141 126.8478966 -67.04534284 126.7428059 -60.56640625 126.67041016 C-58.36245516 126.64023238 -56.1586242 126.59928442 -53.95507812 126.54736328 C-50.78745917 126.47459366 -47.62142708 126.44055353 -44.453125 126.4140625 C-43.46757629 126.38309479 -42.48202759 126.35212708 -41.46661377 126.32022095 C-38.84206077 126.31892903 -36.54795439 126.3684377 -34 127 C-31.47558594 129.92333984 -31.47558594 129.92333984 -30 133 C-23.82579292 138.42581834 -15.74248209 137.5233782 -7.97705078 137.17919922 C-2.27114639 136.66201796 0.88394261 134.11605739 4.8125 130.1875 C9.41216942 123.48512457 10.43787179 118.5294589 10.1875 110.5625 C10.17396484 109.73556641 10.16042969 108.90863281 10.14648438 108.05664062 C10.11146992 106.0374736 10.05767562 104.01864682 10 102 C9.35675781 102.51949219 8.71351562 103.03898437 8.05078125 103.57421875 C-6.35331661 114.69064806 -18.67576474 115.98909639 -36.16796875 114.78125 C-49.65447275 113.02820369 -61.4290991 104.8335446 -69.9921875 94.625 C-78.90699346 82.68757742 -81.18860457 70.92858311 -81.3125 56.375 C-81.34150391 55.26253906 -81.37050781 54.15007812 -81.40039062 53.00390625 C-81.52369593 36.70863622 -74.2143569 21.68634162 -63 10 C-46.28100012 -4.84817695 -20.47119386 -11.87034695 0 0 Z " fill="#023E37" transform="translate(1403,297)"/>
<path d="M0 0 C14.85 0 29.7 0 45 0 C56.17926789 28.93457572 67.14976374 57.94067433 78 87 C80.09890034 83.85164949 81.22409495 80.98755867 82.53442383 77.43994141 C82.78027725 76.77763519 83.02613068 76.11532898 83.2794342 75.43295288 C84.09228618 73.24048917 84.89963127 71.04603918 85.70703125 68.8515625 C86.27475765 67.31744156 86.84285326 65.7834572 87.41130066 64.24960327 C88.91041915 60.20178671 90.40499957 56.15230979 91.89849854 52.10241699 C93.98901659 46.43603116 96.08557093 40.77187564 98.18156433 35.10751343 C99.29623847 32.09511081 100.40919783 29.08208402 101.52070618 26.06851196 C103.92786332 19.546882 106.35045078 13.03134917 108.8190918 6.53271484 C109.21646042 5.48642914 109.61382904 4.44014343 110.02323914 3.3621521 C111 1 111 1 112 0 C113.38160115 -0.0927833 114.76788038 -0.11747043 116.15258789 -0.11352539 C117.03342545 -0.11344986 117.914263 -0.11337433 118.8217926 -0.11329651 C119.77907761 -0.10813522 120.73636261 -0.10297394 121.72265625 -0.09765625 C123.18547279 -0.09553383 123.18547279 -0.09553383 124.67784119 -0.09336853 C127.80609143 -0.08775133 130.93427123 -0.07519593 134.0625 -0.0625 C136.17773334 -0.05748722 138.29296781 -0.05292393 140.40820312 -0.04882812 C145.60549296 -0.03777631 150.80274145 -0.02102146 156 0 C158.4174737 11.73733052 160.66382286 23.47225608 162.5213623 35.31134033 C163.15309686 39.33278764 163.79989102 43.35182432 164.4453125 47.37109375 C164.57631348 48.18831909 164.70731445 49.00554443 164.84228516 49.84753418 C166.09120824 57.61606846 167.40997828 65.37173378 168.75 73.125 C169.23986431 75.96219116 169.7294492 78.79943036 170.21875 81.63671875 C170.35066742 82.40155579 170.48258484 83.16639282 170.61849976 83.95440674 C172.74063901 96.27834635 174.82280576 108.60914296 176.91139221 120.93880463 C177.24694126 122.9194452 177.58263743 124.90006085 177.91833496 126.88067627 C178.55514618 130.63786245 179.19169526 134.39509293 179.828125 138.15234375 C180.01749634 139.26986526 180.20686768 140.38738678 180.40197754 141.53877258 C180.76094616 143.65920325 181.11842537 145.77988673 181.47424316 147.90084839 C181.83379997 150.02030928 182.20264902 152.13820913 182.57946777 154.25466919 C182.76303833 155.30186127 182.94660889 156.34905334 183.13574219 157.42797852 C183.30176941 158.35618912 183.46779663 159.28439972 183.63885498 160.24073792 C184 163 184 163 184 169 C169.81 169 155.62 169 141 169 C139.42830778 164.28492334 138.44405697 160.10092008 137.81640625 155.2421875 C137.71641327 154.50594147 137.61642029 153.76969543 137.51339722 153.01113892 C137.30107966 151.44339333 137.0913443 149.87529619 136.88400269 148.30688477 C136.4501055 145.02483458 136.00380465 141.74450889 135.55805969 138.46405029 C135.33793537 136.84340843 135.11843771 135.22268133 134.89958191 133.60186768 C134.12768254 127.89352543 133.31089477 122.1937669 132.4375 116.5 C131.20697675 108.3990553 129.99679788 100.29534551 128.8125 92.1875 C128.63323975 90.98738281 128.45397949 89.78726563 128.26928711 88.55078125 C127.46145309 82.98158065 126.761676 77.62937727 127 72 C126.34 72 125.68 72 125 72 C124.90211182 72.65371582 124.80422363 73.30743164 124.70336914 73.98095703 C123.78108125 77.93965613 122.28795962 81.55084535 120.74609375 85.3046875 C120.41337967 86.12461685 120.08066559 86.9445462 119.73786926 87.7893219 C118.64210286 90.48634411 117.53994829 93.18070296 116.4375 95.875 C115.67319486 97.75125813 114.9092014 99.62764326 114.14550781 101.50415039 C112.16371463 106.37002605 110.17606922 111.23348959 108.18695068 116.09637451 C106.65223527 119.85073334 105.12150484 123.60671079 103.5907135 127.3626709 C102.15512891 130.88346848 100.71710282 134.40326399 99.27810669 137.92266846 C98.60024112 139.58078208 97.92288159 141.23910269 97.24606323 142.89764404 C93.65987997 151.67977309 90.00055337 160.39575639 86 169 C80.06 169 74.12 169 68 169 C64.64541885 160.31266 61.29123791 151.62516556 57.9375 142.9375 C57.68904076 142.29388142 57.44058151 141.65026283 57.1845932 140.98714066 C48.43890296 118.33148077 39.7088326 95.66985665 31 73 C28.57747565 87.63446182 26.34758103 102.28190615 24.39550781 116.98706055 C23.58532823 123.02901303 22.67058546 129.02187382 21.54443359 135.01269531 C20.38291165 141.38596101 19.39805618 147.79085309 18.375 154.1875 C17.59125 159.075625 16.8075 163.96375 16 169 C1.48 169 -13.04 169 -28 169 C-26.87575667 157.75756674 -26.87575667 157.75756674 -25.90625 152.23046875 C-25.68541748 150.9583252 -25.46458496 149.68618164 -25.23706055 148.37548828 C-25.11793304 147.69875061 -24.99880554 147.02201294 -24.87606812 146.32476807 C-24.34326968 143.29677116 -23.81890794 140.26732654 -23.29386902 137.23797607 C-23.0024262 135.55663637 -22.71059577 133.87536381 -22.41841125 132.19415283 C-20.66988154 122.1249192 -18.96296723 112.04864237 -17.25494385 101.97247314 C-16.49144586 97.46843453 -15.72712114 92.96453634 -14.96282959 88.46063232 C-14.5723611 86.15957421 -14.18193983 83.85850808 -13.79156494 81.55743408 C-12.37160741 73.18778239 -10.94983461 64.81844022 -9.52734375 56.44921875 C-8.92158574 52.884585 -8.31584774 49.31994785 -7.71011353 45.75531006 C-7.32623142 43.49654638 -6.9422622 41.2377975 -6.55819702 38.97906494 C-6.02030488 35.81551518 -5.48277506 32.65190402 -4.9453125 29.48828125 C-4.79251328 28.59018234 -4.63971405 27.69208344 -4.48228455 26.76676941 C-2.9677001 17.84781882 -1.48728535 8.92371207 0 0 Z " fill="#013D37" transform="translate(1510,18)"/>
<path d="M0 0 C12.09673806 8.6106464 21.03716408 22.1054594 24.3359375 36.63037109 C27.25290798 54.515806 24.61614799 72.61490907 14.7109375 87.9296875 C6.10958284 99.73418664 -6.68455833 109.38317926 -21.2890625 111.9296875 C-24.8494208 112.1659232 -28.40908442 112.16057174 -31.9765625 112.1796875 C-33.39098633 112.210625 -33.39098633 112.210625 -34.83398438 112.2421875 C-43.53643088 112.290036 -51.24939991 110.65930616 -58.6640625 105.9296875 C-59.45554687 105.4346875 -60.24703125 104.9396875 -61.0625 104.4296875 C-63.18632526 102.99889996 -65.24040843 101.46617805 -67.2890625 99.9296875 C-67.6190625 122.0396875 -67.9490625 144.1496875 -68.2890625 166.9296875 C-81.8190625 166.9296875 -95.3490625 166.9296875 -109.2890625 166.9296875 C-109.2890625 109.8396875 -109.2890625 52.7496875 -109.2890625 -6.0703125 C-96.0890625 -6.0703125 -82.8890625 -6.0703125 -69.2890625 -6.0703125 C-69.2890625 -2.1103125 -69.2890625 1.8496875 -69.2890625 5.9296875 C-68.6290625 5.9296875 -67.9690625 5.9296875 -67.2890625 5.9296875 C-67.05960938 5.3521875 -66.83015625 4.7746875 -66.59375 4.1796875 C-62.52585814 -2.83559906 -53.25428305 -7.26243467 -45.7109375 -9.44140625 C-29.11970516 -12.49070808 -14.31528658 -8.94225677 0 0 Z " fill="#013E37" transform="translate(969.2890625,78.0703125)"/>
<path d="M0 0 C2.27237098 1.67393811 4.17899576 3.51911345 6.12109375 5.5625 C6.45109375 2.2625 6.78109375 -1.0375 7.12109375 -4.4375 C20.65109375 -4.4375 34.18109375 -4.4375 48.12109375 -4.4375 C48.12109375 33.5125 48.12109375 71.4625 48.12109375 110.5625 C34.59109375 110.5625 21.06109375 110.5625 7.12109375 110.5625 C6.79109375 106.9325 6.46109375 103.3025 6.12109375 99.5625 C4.80109375 100.8 3.48109375 102.0375 2.12109375 103.3125 C-1.94361297 106.92415464 -5.81932518 109.58564241 -10.87890625 111.5625 C-11.71035156 111.91699219 -12.54179688 112.27148438 -13.3984375 112.63671875 C-28.02764691 116.52798994 -44.56145778 114.41995634 -57.58984375 107.0234375 C-60.17722329 105.34363109 -62.51532952 103.54384815 -64.87890625 101.5625 C-65.72195313 100.86640625 -66.565 100.1703125 -67.43359375 99.453125 C-74.96357802 92.63265293 -78.86743258 84.71613232 -82.87890625 75.5625 C-83.45125 74.27279297 -83.45125 74.27279297 -84.03515625 72.95703125 C-86.38553134 66.28675378 -86.09610753 59.29042736 -86.12890625 52.3125 C-86.14953125 51.23097656 -86.17015625 50.14945312 -86.19140625 49.03515625 C-86.26790494 33.18080366 -79.73800371 19.0626533 -68.87890625 7.5625 C-49.6950339 -10.8645472 -22.52703782 -13.97967945 0 0 Z " fill="#013D37" transform="translate(1100.87890625,299.4375)"/>
<path d="M0 0 C2.27237098 1.67393811 4.17899576 3.51911345 6.12109375 5.5625 C6.45109375 2.2625 6.78109375 -1.0375 7.12109375 -4.4375 C20.65109375 -4.4375 34.18109375 -4.4375 48.12109375 -4.4375 C48.12109375 33.5125 48.12109375 71.4625 48.12109375 110.5625 C34.59109375 110.5625 21.06109375 110.5625 7.12109375 110.5625 C6.79109375 106.9325 6.46109375 103.3025 6.12109375 99.5625 C4.80109375 100.8 3.48109375 102.0375 2.12109375 103.3125 C-1.94361297 106.92415464 -5.81932518 109.58564241 -10.87890625 111.5625 C-11.71035156 111.91699219 -12.54179688 112.27148438 -13.3984375 112.63671875 C-28.02764691 116.52798994 -44.56145778 114.41995634 -57.58984375 107.0234375 C-60.17722329 105.34363109 -62.51532952 103.54384815 -64.87890625 101.5625 C-65.72195313 100.86640625 -66.565 100.1703125 -67.43359375 99.453125 C-74.96357802 92.63265293 -78.86743258 84.71613232 -82.87890625 75.5625 C-83.45125 74.27279297 -83.45125 74.27279297 -84.03515625 72.95703125 C-86.38553134 66.28675378 -86.09610753 59.29042736 -86.12890625 52.3125 C-86.14953125 51.23097656 -86.17015625 50.14945312 -86.19140625 49.03515625 C-86.26790494 33.18080366 -79.73800371 19.0626533 -68.87890625 7.5625 C-49.6950339 -10.8645472 -22.52703782 -13.97967945 0 0 Z " fill="#013D37" transform="translate(836.87890625,299.4375)"/>
<path d="M0 0 C2.27237098 1.67393811 4.17899576 3.51911345 6.12109375 5.5625 C6.45109375 2.2625 6.78109375 -1.0375 7.12109375 -4.4375 C20.65109375 -4.4375 34.18109375 -4.4375 48.12109375 -4.4375 C48.12109375 33.5125 48.12109375 71.4625 48.12109375 110.5625 C34.59109375 110.5625 21.06109375 110.5625 7.12109375 110.5625 C6.79109375 106.9325 6.46109375 103.3025 6.12109375 99.5625 C4.80109375 100.8 3.48109375 102.0375 2.12109375 103.3125 C-1.94361297 106.92415464 -5.81932518 109.58564241 -10.87890625 111.5625 C-11.71035156 111.91699219 -12.54179688 112.27148438 -13.3984375 112.63671875 C-28.02764691 116.52798994 -44.56145778 114.41995634 -57.58984375 107.0234375 C-60.17722329 105.34363109 -62.51532952 103.54384815 -64.87890625 101.5625 C-65.72195313 100.86640625 -66.565 100.1703125 -67.43359375 99.453125 C-74.96357802 92.63265293 -78.86743258 84.71613232 -82.87890625 75.5625 C-83.45125 74.27279297 -83.45125 74.27279297 -84.03515625 72.95703125 C-86.38553134 66.28675378 -86.09610753 59.29042736 -86.12890625 52.3125 C-86.14953125 51.23097656 -86.17015625 50.14945313 -86.19140625 49.03515625 C-86.26790494 33.18080366 -79.73800371 19.0626533 -68.87890625 7.5625 C-49.6950339 -10.8645472 -22.52703782 -13.97967945 0 0 Z " fill="#013D37" transform="translate(1099.87890625,76.4375)"/>
<path d="M0 0 C13.53 0 27.06 0 41 0 C41.33 36.63 41.66 73.26 42 111 C51.69361203 102.38475477 51.69361203 102.38475477 59.328125 92.80078125 C66.12822252 83.67924348 73.66903914 73.96898501 85.24072266 71.23406982 C102.59292135 68.71689654 120.62601668 70.31049027 138 72 C137.05985126 73.11183013 136.11752955 74.22182303 135.17431641 75.33105469 C134.64979889 75.94938171 134.12528137 76.56770874 133.58486938 77.20477295 C131.34374313 79.743361 128.89308785 81.98857675 126.375 84.25 C125.318917 85.20432371 124.26293012 86.15875381 123.20703125 87.11328125 C122.40773193 87.83185303 122.40773193 87.83185303 121.59228516 88.56494141 C119.06790905 90.84005376 116.56560944 93.1390473 114.0625 95.4375 C113.57056152 95.88834961 113.07862305 96.33919922 112.57177734 96.80371094 C108.33270958 100.68940848 104.10783162 104.59037619 99.88427734 108.49291992 C94.27074452 113.67784161 88.63687575 118.8404813 83 124 C84.50841813 127.55480003 86.57633661 129.79559622 89.32421875 132.484375 C90.18853516 133.33773437 91.05285156 134.19109375 91.94335938 135.0703125 C92.84892578 135.95460938 93.75449219 136.83890625 94.6875 137.75 C96.46469162 139.49229404 98.23947141 141.23705193 100.01171875 142.984375 C100.80022217 143.75491211 101.58872559 144.52544922 102.40112305 145.31933594 C104.46890123 147.45218746 106.4190734 149.61090504 108.35888672 151.85668945 C111.82432526 155.85114567 115.48302649 159.59588611 119.24609375 163.30859375 C119.90207047 163.96078384 120.55804718 164.61297394 121.23390198 165.28492737 C123.29932169 167.33826707 125.36799323 169.38828014 127.4375 171.4375 C130.18902834 174.16253191 132.93728562 176.89080218 135.68359375 179.62109375 C136.63497475 180.56002724 136.63497475 180.56002724 137.60557556 181.51792908 C139.08929696 182.99317155 140.54758974 184.493921 142 186 C142 186.33 142 186.66 142 187 C134.77642527 187.2800032 127.55404757 187.49221233 120.32611465 187.62174606 C116.96747447 187.68398786 113.61538599 187.7746859 110.25830078 187.90527344 C85.51568914 188.84312048 85.51568914 188.84312048 78.88018799 182.84588623 C76.63048707 180.36541375 74.82303815 177.81436553 73 175 C71.87499455 173.66960418 70.73453104 172.35166001 69.5625 171.0625 C69.03785156 170.44503906 68.51320313 169.82757813 67.97265625 169.19140625 C64.72262592 165.58097652 61.23140194 162.21176597 57.77783203 158.79736328 C54.17679136 155.22143885 50.73033545 151.57273373 47.46484375 147.68359375 C45.73969382 145.70082143 43.85843057 143.85843057 42 142 C41.67 156.85 41.34 171.7 41 187 C27.47 187 13.94 187 0 187 C0 125.29 0 63.58 0 0 Z " fill="#023E37" transform="translate(605,223)"/>
<path d="M0 0 C-1.28358638 4.08739797 -2.80324192 7.86299512 -4.71484375 11.6953125 C-5.49698242 13.26345703 -5.49698242 13.26345703 -6.29492188 14.86328125 C-6.83697266 15.93964844 -7.37902344 17.01601563 -7.9375 18.125 C-8.47568359 19.20910156 -9.01386719 20.29320312 -9.56835938 21.41015625 C-10.09107422 22.45300781 -10.61378906 23.49585938 -11.15234375 24.5703125 C-11.62663818 25.51664551 -12.10093262 26.46297852 -12.58959961 27.43798828 C-13.89552211 29.81021448 -15.31601785 31.88468207 -17 34 C-21.90911386 32.12856985 -26.4958508 29.74551957 -31.16015625 27.33984375 C-38.46506074 23.89337574 -49.09925322 23.26460808 -56.7578125 25.9765625 C-60.37005051 28.14923702 -62.40321799 30.04209957 -64 34 C-64.32840817 37.61248986 -64.29545317 40.22443544 -63 43.625 C-56.11695227 51.79861918 -44.74372197 53.97213274 -34.97265625 57.07421875 C-19.78028273 62.07484326 -5.03276983 69.85092915 2.81640625 84.4375 C9.27667485 98.42408811 8.74046754 115.17236536 4.26953125 129.72265625 C2.39143564 134.57103229 0.03683389 138.78966372 -3 143 C-3.40089844 143.57105469 -3.80179687 144.14210938 -4.21484375 144.73046875 C-11.89542984 154.79022629 -25.02851682 160.83969587 -37 164 C-37.75796875 164.20496094 -38.5159375 164.40992188 -39.296875 164.62109375 C-51.91628542 167.46242063 -66.48883219 167.17338659 -79 164 C-80.13179688 163.75507813 -81.26359375 163.51015625 -82.4296875 163.2578125 C-95.39967513 160.21080917 -106.94198864 154.37200757 -118 147 C-112.18888103 135.23167249 -106.15344129 123.59277953 -100 112 C-96.84146769 112.71138115 -95.10392917 113.52744454 -92.625 115.625 C-83.37392871 122.83385367 -73.39047598 127.16908055 -61.6875 127.25 C-60.95337891 127.270625 -60.21925781 127.29125 -59.46289062 127.3125 C-53.26520254 127.35649424 -48.61098155 126.11701206 -43.6875 122.125 C-40.50263554 118.11442993 -39.37169457 114.22765848 -39.5859375 109.046875 C-40.43164686 104.86619852 -42.65007966 102.52440426 -46 100 C-53.62135934 95.87176369 -61.9527294 93.30520075 -70.125 90.5 C-85.24496995 85.28729126 -98.88439886 79.259065 -106.81640625 64.49609375 C-107.20699219 63.67238281 -107.59757812 62.84867187 -108 62 C-108.33902344 61.28972656 -108.67804688 60.57945312 -109.02734375 59.84765625 C-114.25384803 46.14313582 -111.60093299 29.55508157 -105.9375 16.5625 C-99.75503512 4.19757024 -88.55738923 -5.57288971 -75.5859375 -10.22265625 C-50.17379974 -17.86165235 -23.0412788 -11.9276666 0 0 Z " fill="#013E37" transform="translate(429,249)"/>
<path d="M0 0 C-1.28358638 4.08739797 -2.80324192 7.86299512 -4.71484375 11.6953125 C-5.49698242 13.26345703 -5.49698242 13.26345703 -6.29492188 14.86328125 C-6.83697266 15.93964844 -7.37902344 17.01601563 -7.9375 18.125 C-8.47568359 19.20910156 -9.01386719 20.29320312 -9.56835938 21.41015625 C-10.09107422 22.45300781 -10.61378906 23.49585938 -11.15234375 24.5703125 C-11.62663818 25.51664551 -12.10093262 26.46297852 -12.58959961 27.43798828 C-13.89552211 29.81021448 -15.31601785 31.88468207 -17 34 C-21.90911386 32.12856985 -26.4958508 29.74551957 -31.16015625 27.33984375 C-38.46506074 23.89337574 -49.09925322 23.26460808 -56.7578125 25.9765625 C-60.37005051 28.14923702 -62.40321799 30.04209957 -64 34 C-64.32840817 37.61248986 -64.29545317 40.22443544 -63 43.625 C-56.11695227 51.79861918 -44.74372197 53.97213274 -34.97265625 57.07421875 C-19.78028273 62.07484326 -5.03276983 69.85092915 2.81640625 84.4375 C9.27667485 98.42408811 8.74046754 115.17236536 4.26953125 129.72265625 C2.39143564 134.57103229 0.03683389 138.78966372 -3 143 C-3.40089844 143.57105469 -3.80179688 144.14210937 -4.21484375 144.73046875 C-11.89542984 154.79022629 -25.02851682 160.83969587 -37 164 C-37.75796875 164.20496094 -38.5159375 164.40992188 -39.296875 164.62109375 C-51.91628542 167.46242063 -66.48883219 167.17338659 -79 164 C-80.13179687 163.75507813 -81.26359375 163.51015625 -82.4296875 163.2578125 C-95.39967513 160.21080917 -106.94198864 154.37200757 -118 147 C-112.18888103 135.23167249 -106.15344129 123.59277953 -100 112 C-96.84146769 112.71138115 -95.10392917 113.52744454 -92.625 115.625 C-83.37392871 122.83385367 -73.39047598 127.16908055 -61.6875 127.25 C-60.95337891 127.270625 -60.21925781 127.29125 -59.46289062 127.3125 C-53.26520254 127.35649424 -48.61098155 126.11701206 -43.6875 122.125 C-40.50263554 118.11442993 -39.37169457 114.22765848 -39.5859375 109.046875 C-40.43164686 104.86619852 -42.65007966 102.52440426 -46 100 C-53.62135934 95.87176369 -61.9527294 93.30520075 -70.125 90.5 C-85.24496995 85.28729126 -98.88439886 79.259065 -106.81640625 64.49609375 C-107.20699219 63.67238281 -107.59757813 62.84867187 -108 62 C-108.33902344 61.28972656 -108.67804687 60.57945313 -109.02734375 59.84765625 C-114.25384803 46.14313582 -111.60093299 29.55508157 -105.9375 16.5625 C-99.75503512 4.19757024 -88.55738923 -5.57288971 -75.5859375 -10.22265625 C-50.17379974 -17.86165235 -23.0412788 -11.9276666 0 0 Z " fill="#013E37" transform="translate(684,26)"/>
<path d="M0 0 C0 17.49 0 34.98 0 53 C-2.31 51.02 -4.62 49.04 -7 47 C-19.02389054 36.70381412 -31.01745665 34.61758639 -46.50097656 35.70898438 C-57.79238324 37.02388832 -67.26603331 44.22629997 -74.3984375 52.7265625 C-77.30011691 56.8455318 -79.18500035 61.32070403 -81 66 C-81.433125 67.093125 -81.86625 68.18625 -82.3125 69.3125 C-85.07454894 84.12712614 -81.96616617 98.41142743 -73.73046875 110.9296875 C-67.42664696 119.10467253 -56.97071975 124.77545695 -47 127 C-32.63046317 128.47551837 -19.75261123 125.42413447 -8 117 C-5.94303783 115.17670307 -4.04845637 113.32371691 -2.20703125 111.28515625 C-1.60955078 110.64900391 -1.60955078 110.64900391 -1 110 C-0.67 110 -0.34 110 0 110 C0 127.16 0 144.32 0 162 C-6.31341735 164.80596327 -11.52857947 166.84671813 -18.125 168.1875 C-18.88425781 168.35185547 -19.64351563 168.51621094 -20.42578125 168.68554688 C-45.18435452 173.94834171 -67.35163973 170.05956698 -89.0546875 156.94140625 C-109.69234475 143.33806984 -123.16913813 123.02370397 -128.81567383 99.05126953 C-133.65994525 75.28072414 -128.78272206 51.23764228 -115.67285156 30.94580078 C-105.16232465 15.85541612 -91.41381768 5.54371046 -74.6875 -1.875 C-74.04216309 -2.16133301 -73.39682617 -2.44766602 -72.73193359 -2.74267578 C-48.76210613 -12.94534357 -23.69589959 -7.8986332 0 0 Z " fill="#023E37" transform="translate(140,21)"/>
<path d="M0 0 C1.28003906 -0.00773437 2.56007813 -0.01546875 3.87890625 -0.0234375 C10.45478609 -0.00983692 16.23032399 0.23950054 22.5 2.25 C23.59183594 2.59417969 24.68367187 2.93835938 25.80859375 3.29296875 C33.08660626 5.95521302 38.75801641 9.03990542 44.5 14.25 C45.386875 15.054375 46.27375 15.85875 47.1875 16.6875 C61.19090007 32.20478116 63.5 47.7459858 63.5 68.25 C35.45 68.25 7.4 68.25 -21.5 68.25 C-20.4268669 80.15182104 -20.4268669 80.15182104 -13.94140625 89.73046875 C-6.96437635 94.5500131 1.40948116 93.82334385 9.5 93.25 C13.98040728 92.0376545 16.6426104 90.32317282 19.54101562 86.6953125 C23.59191584 83.34763787 26.42826157 83.60289838 31.51953125 83.76171875 C32.80738777 83.77233086 32.80738777 83.77233086 34.1212616 83.78315735 C36.85257603 83.81105598 39.58180958 83.87378309 42.3125 83.9375 C44.1685901 83.96258886 46.02471246 83.98540101 47.88085938 84.00585938 C52.42136972 84.06086747 56.96033257 84.14710636 61.5 84.25 C59.35233344 95.83015009 52.49299052 106.26103391 42.91015625 113.09765625 C40.48176039 114.58390755 38.02624502 115.93880016 35.5 117.25 C34.571875 117.806875 33.64375 118.36375 32.6875 118.9375 C14.76009582 126.31937231 -9.43800099 125.82851257 -27.3125 118.4375 C-28.72105521 117.7332224 -30.11698808 117.00320166 -31.5 116.25 C-32.29664063 115.84136719 -33.09328125 115.43273437 -33.9140625 115.01171875 C-47.62975167 107.47445922 -56.88829784 95.10992919 -61.5 80.25 C-65.08660386 61.74875884 -63.85503662 42.7192348 -54.25 26.375 C-45.36803076 13.46449179 -32.34554096 4.33418934 -17.03369141 0.65136719 C-11.40323591 -0.24056467 -5.6855201 -0.0343536 0 0 Z " fill="#013D37" transform="translate(518.5,290.75)"/>
<path d="M0 0 C1.28003906 -0.00773437 2.56007813 -0.01546875 3.87890625 -0.0234375 C10.45478609 -0.00983692 16.23032399 0.23950054 22.5 2.25 C23.59183594 2.59417969 24.68367187 2.93835938 25.80859375 3.29296875 C33.08660626 5.95521302 38.75801641 9.03990542 44.5 14.25 C45.386875 15.054375 46.27375 15.85875 47.1875 16.6875 C61.19090007 32.20478116 63.5 47.7459858 63.5 68.25 C35.45 68.25 7.4 68.25 -21.5 68.25 C-20.4268669 80.15182104 -20.4268669 80.15182104 -13.94140625 89.73046875 C-6.96437635 94.5500131 1.40948116 93.82334385 9.5 93.25 C13.98040728 92.0376545 16.6426104 90.32317282 19.54101562 86.6953125 C23.59191584 83.34763787 26.42826157 83.60289838 31.51953125 83.76171875 C32.80738777 83.77233086 32.80738777 83.77233086 34.1212616 83.78315735 C36.85257603 83.81105598 39.58180958 83.87378309 42.3125 83.9375 C44.1685901 83.96258886 46.02471246 83.98540101 47.88085938 84.00585938 C52.42136972 84.06086747 56.96033257 84.14710636 61.5 84.25 C59.35233344 95.83015009 52.49299052 106.26103391 42.91015625 113.09765625 C40.48176039 114.58390755 38.02624502 115.93880016 35.5 117.25 C34.571875 117.806875 33.64375 118.36375 32.6875 118.9375 C14.76009582 126.31937231 -9.43800099 125.82851257 -27.3125 118.4375 C-28.72105521 117.7332224 -30.11698808 117.00320166 -31.5 116.25 C-32.29664063 115.84136719 -33.09328125 115.43273437 -33.9140625 115.01171875 C-47.62975167 107.47445922 -56.88829784 95.10992919 -61.5 80.25 C-65.08660386 61.74875884 -63.85503662 42.7192348 -54.25 26.375 C-45.36803076 13.46449179 -32.34554096 4.33418934 -17.03369141 0.65136719 C-11.40323591 -0.24056467 -5.6855201 -0.0343536 0 0 Z " fill="#013D37" transform="translate(773.5,67.75)"/>
<path d="M0 0 C1.22099991 1.04543129 2.40819237 2.13136634 3.5625 3.25 C4.25988281 3.90871094 4.95726562 4.56742187 5.67578125 5.24609375 C14.81366726 14.61785619 16.73944357 25.63711049 16.67602539 38.38842773 C16.67617142 39.16973557 16.67631744 39.9510434 16.6764679 40.75602722 C16.67577627 43.3152452 16.66801927 45.87438862 16.66015625 48.43359375 C16.6582894 50.21720846 16.65686676 52.00082368 16.65586853 53.78443909 C16.65206435 58.46151158 16.64225213 63.13855265 16.63116455 67.81561279 C16.61909894 73.43663636 16.61453819 79.05767048 16.60871124 84.67870331 C16.59903914 93.20249068 16.57986792 101.72620919 16.5625 110.25 C3.0325 110.25 -10.4975 110.25 -24.4375 110.25 C-24.49357422 102.9178125 -24.49357422 102.9178125 -24.55078125 95.4375 C-24.58107931 92.32939272 -24.61223906 89.22134144 -24.64648438 86.11328125 C-24.70068491 81.18671587 -24.7517994 76.26026125 -24.78393555 71.33349609 C-24.81006299 67.35865358 -24.85053092 63.38418579 -24.90068626 59.40957642 C-24.91729148 57.89788496 -24.9288451 56.38612879 -24.93511391 54.87435913 C-24.94646231 40.33299336 -24.94646231 40.33299336 -32.4375 28.25 C-38.86405789 25.03103384 -47.1960085 24.85349055 -53.98828125 27.08984375 C-59.03486404 29.9125087 -61.67060818 33.73891406 -63.4375 39.25 C-64.04921885 44.68418142 -64.04390928 50.10212671 -64.046875 55.5625 C-64.06187374 57.14292074 -64.07860442 58.72332591 -64.09698486 60.30371094 C-64.14048109 64.43988813 -64.16061779 68.57585393 -64.17572021 72.71221924 C-64.19881497 77.68764341 -64.251224 82.66283658 -64.29866028 87.63807678 C-64.36727264 95.17544447 -64.39888397 102.71215034 -64.4375 110.25 C-77.9675 110.25 -91.4975 110.25 -105.4375 110.25 C-105.4375 72.3 -105.4375 34.35 -105.4375 -4.75 C-92.2375 -4.75 -79.0375 -4.75 -65.4375 -4.75 C-65.4375 -0.13 -65.4375 4.49 -65.4375 9.25 C-64.7775 9.25 -64.1175 9.25 -63.4375 9.25 C-63.17710938 8.66089844 -62.91671875 8.07179688 -62.6484375 7.46484375 C-58.31089177 -0.46866732 -49.61691616 -4.0197673 -41.4375 -6.75 C-27.72639466 -10.27377666 -11.68840955 -8.14095451 0 0 Z " fill="#023E37" transform="translate(1281.4375,299.75)"/>
<path d="M0 0 C13.53 0 27.06 0 41 0 C41.05607422 7.80011719 41.05607422 7.80011719 41.11328125 15.7578125 C41.1435667 19.05732446 41.17471824 22.35678284 41.20898438 25.65625 C41.26325921 30.89027169 41.31437112 36.12418741 41.34643555 41.35839844 C41.37249539 45.57960838 41.41291653 49.80046143 41.46318626 54.02145004 C41.4798369 55.62969388 41.49136241 57.23799942 41.49761391 58.84631729 C41.5072749 61.10381499 41.53535629 63.36040335 41.56762695 65.61767578 C41.58428154 67.54294601 41.58428154 67.54294601 41.60127258 69.5071106 C42.17549335 74.53733813 43.72228284 77.82056878 47.4375 81.25 C53.87391366 85.64559957 59.29201752 85.58937978 67 85 C71.20936032 84.15416307 74.21254644 82.74600864 77.375 79.75 C80.56596137 74.34991153 81.25171007 68.96738871 81.31884766 62.77954102 C81.32889328 62.09576889 81.3389389 61.41199677 81.34928894 60.70750427 C81.37989909 58.47297927 81.39709344 56.23857281 81.4140625 54.00390625 C81.43279207 52.44448339 81.45236679 50.88507048 81.4727478 49.32566833 C81.52388628 45.24050787 81.5636093 41.15531461 81.60089111 37.07000732 C81.64811795 32.15805759 81.70963681 27.24626823 81.76873779 22.33444977 C81.85672697 14.88969857 81.9266505 7.44497463 82 0 C95.53 0 109.06 0 123 0 C123.12032643 19.23440234 123.12032643 19.23440234 123.14648438 27.49609375 C123.16434887 33.11157848 123.18537692 38.72691507 123.22631836 44.34228516 C123.25915254 48.87457136 123.27690323 53.40669848 123.28463173 57.93909454 C123.29013239 59.6596756 123.30087259 61.38024894 123.31719017 63.10076141 C123.45215764 77.93500277 122.39441503 92.23468498 112.25390625 104.03125 C99.18376656 116.4220685 81.37406187 119.19114906 64.12670898 119.24023438 C62.09901069 119.24982727 60.07237816 119.28084804 58.04492188 119.3125 C45.77493795 119.4144868 33.47504658 118.18575081 22.5 112.25 C21.82984863 111.89711914 21.15969727 111.54423828 20.46923828 111.18066406 C10.52515377 105.75661797 4.70076614 98.13492459 1.44615173 87.12669373 C-0.5860421 78.42690619 -0.25106282 69.61533933 -0.1953125 60.7421875 C-0.19157594 58.985282 -0.18873201 57.2283744 -0.18673706 55.47146606 C-0.17915122 50.87823595 -0.1595469 46.2851351 -0.1373291 41.69195557 C-0.11313606 36.16432363 -0.10406562 30.63664815 -0.09242249 25.10897827 C-0.07311894 16.73922933 -0.03476136 8.36976324 0 0 Z " fill="#013E37" transform="translate(1719,72)"/>
<path d="M0 0 C13.53 0 27.06 0 41 0 C41.05607422 7.80011719 41.05607422 7.80011719 41.11328125 15.7578125 C41.1435667 19.05732446 41.17471824 22.35678284 41.20898438 25.65625 C41.26325921 30.89027169 41.31437112 36.12418741 41.34643555 41.35839844 C41.37249539 45.57960838 41.41291653 49.80046143 41.46318626 54.02145004 C41.4798369 55.62969388 41.49136241 57.23799942 41.49761391 58.84631729 C41.5072749 61.10381499 41.53535629 63.36040335 41.56762695 65.61767578 C41.58428154 67.54294601 41.58428154 67.54294601 41.60127258 69.5071106 C42.17549335 74.53733813 43.72228284 77.82056878 47.4375 81.25 C53.87391366 85.64559957 59.29201752 85.58937978 67 85 C71.20936032 84.15416307 74.21254644 82.74600864 77.375 79.75 C80.56596137 74.34991153 81.25171007 68.96738871 81.31884766 62.77954102 C81.32889328 62.09576889 81.3389389 61.41199677 81.34928894 60.70750427 C81.37989909 58.47297927 81.39709344 56.23857281 81.4140625 54.00390625 C81.43279207 52.44448339 81.45236679 50.88507048 81.4727478 49.32566833 C81.52388628 45.24050787 81.5636093 41.15531461 81.60089111 37.07000732 C81.64811795 32.15805759 81.70963681 27.24626823 81.76873779 22.33444977 C81.85672697 14.88969857 81.9266505 7.44497463 82 0 C95.53 0 109.06 0 123 0 C123.12032643 19.23440234 123.12032643 19.23440234 123.14648438 27.49609375 C123.16434887 33.11157848 123.18537692 38.72691507 123.22631836 44.34228516 C123.25915254 48.87457136 123.27690323 53.40669848 123.28463173 57.93909454 C123.29013239 59.6596756 123.30087259 61.38024894 123.31719017 63.10076141 C123.45215764 77.93500277 122.39441503 92.23468498 112.25390625 104.03125 C99.18376656 116.4220685 81.37406187 119.19114906 64.12670898 119.24023438 C62.09901069 119.24982727 60.07237816 119.28084804 58.04492188 119.3125 C45.77493795 119.4144868 33.47504658 118.18575081 22.5 112.25 C21.82984863 111.89711914 21.15969727 111.54423828 20.46923828 111.18066406 C10.52515377 105.75661797 4.70076614 98.13492459 1.44615173 87.12669373 C-0.5860421 78.42690619 -0.25106282 69.61533933 -0.1953125 60.7421875 C-0.19157594 58.985282 -0.18873201 57.2283744 -0.18673706 55.47146606 C-0.17915122 50.87823595 -0.1595469 46.2851351 -0.1373291 41.69195557 C-0.11313606 36.16432363 -0.10406562 30.63664815 -0.09242249 25.10897827 C-0.07311894 16.73922933 -0.03476136 8.36976324 0 0 Z " fill="#013E37" transform="translate(1259,72)"/>
<path d="M0 0 C13.53 0 27.06 0 41 0 C41.05607422 7.80011719 41.05607422 7.80011719 41.11328125 15.7578125 C41.1435667 19.05732446 41.17471824 22.35678284 41.20898438 25.65625 C41.26325921 30.89027169 41.31437112 36.12418741 41.34643555 41.35839844 C41.37249539 45.57960838 41.41291653 49.80046143 41.46318626 54.02145004 C41.4798369 55.62969388 41.49136241 57.23799942 41.49761391 58.84631729 C41.5072749 61.10381499 41.53535629 63.36040335 41.56762695 65.61767578 C41.58428154 67.54294601 41.58428154 67.54294601 41.60127258 69.5071106 C42.17549335 74.53733813 43.72228284 77.82056878 47.4375 81.25 C53.87391366 85.64559957 59.29201752 85.58937978 67 85 C71.20936032 84.15416307 74.21254644 82.74600864 77.375 79.75 C80.56596137 74.34991153 81.25171007 68.96738871 81.31884766 62.77954102 C81.32889328 62.09576889 81.3389389 61.41199677 81.34928894 60.70750427 C81.37989909 58.47297927 81.39709344 56.23857281 81.4140625 54.00390625 C81.43279207 52.44448339 81.45236679 50.88507048 81.4727478 49.32566833 C81.52388628 45.24050787 81.5636093 41.15531461 81.60089111 37.07000732 C81.64811795 32.15805759 81.70963681 27.24626823 81.76873779 22.33444977 C81.85672697 14.88969857 81.9266505 7.44497463 82 0 C95.53 0 109.06 0 123 0 C123.12032643 19.23440234 123.12032643 19.23440234 123.14648438 27.49609375 C123.16434887 33.11157848 123.18537692 38.72691507 123.22631836 44.34228516 C123.25915254 48.87457136 123.27690323 53.40669848 123.28463173 57.93909454 C123.29013239 59.6596756 123.30087259 61.38024894 123.31719017 63.10076141 C123.45215764 77.93500277 122.39441503 92.23468498 112.25390625 104.03125 C99.18376656 116.4220685 81.37406187 119.19114906 64.12670898 119.24023438 C62.09901069 119.24982727 60.07237816 119.28084804 58.04492188 119.3125 C45.77493795 119.4144868 33.47504658 118.18575081 22.5 112.25 C21.82984863 111.89711914 21.15969727 111.54423828 20.46923828 111.18066406 C10.52515377 105.75661797 4.70076614 98.13492459 1.44615173 87.12669373 C-0.5860421 78.42690619 -0.25106282 69.61533933 -0.1953125 60.7421875 C-0.19157594 58.985282 -0.18873201 57.2283744 -0.18673706 55.47146606 C-0.17915122 50.87823595 -0.1595469 46.2851351 -0.1373291 41.69195557 C-0.11313606 36.16432363 -0.10406562 30.63664815 -0.09242249 25.10897827 C-0.07311894 16.73922933 -0.03476136 8.36976324 0 0 Z " fill="#013E37" transform="translate(164,72)"/>
<path d="M0 0 C13.2 0 26.4 0 40 0 C40 11.55 40 23.1 40 35 C47.59 35 55.18 35 63 35 C63 45.89 63 56.78 63 68 C55.41 68 47.82 68 40 68 C40 95.06 40 122.12 40 150 C26.8 150 13.6 150 0 150 C0 123.27 0 96.54 0 69 C-4.62 69 -9.24 69 -14 69 C-14 57.78 -14 46.56 -14 35 C-9.38 35 -4.76 35 0 35 C0 23.45 0 11.9 0 0 Z " fill="#003D37" transform="translate(1181,37)"/>
<path d="M0 0 C0 11.55 0 23.1 0 35 C-3.96 33.35 -7.92 31.7 -12 30 C-19.14828982 27.61723673 -27.65852012 27.88647053 -34.5 31.0625 C-40.28116998 34.43247593 -45.13527482 39.35723942 -47.5234375 45.73046875 C-49.34441655 54.40250833 -49.10898922 63.19947609 -44.546875 70.9140625 C-40.3085895 76.62932629 -35.05933502 80.6245096 -28 82 C-19.10638785 82.86067214 -11.95963315 82.08415633 -4 78 C-2.68 77.34 -1.36 76.68 0 76 C0 87.22 0 98.44 0 110 C-15.96879707 116.65366545 -35.49897727 119.7290328 -52.30078125 113.24609375 C-53.19152344 112.83488281 -54.08226562 112.42367187 -55 112 C-55.92167969 111.59910156 -56.84335937 111.19820313 -57.79296875 110.78515625 C-72.67127502 103.54535983 -82.9571723 90.88436407 -89.0546875 75.76171875 C-93.6527572 62.32851513 -92.88835645 43.87734027 -87 31 C-86.36384766 29.58074219 -86.36384766 29.58074219 -85.71484375 28.1328125 C-77.73275597 12.07970002 -63.86494233 2.05662603 -47.34375 -3.96875 C-31.86211969 -8.66542436 -14.45869072 -7.22934536 0 0 Z " fill="#013E37" transform="translate(402,74)"/>
<path d="M0 0 C0 12.87 0 25.74 0 39 C-2.64 38.34 -5.28 37.68 -8 37 C-10.29297983 36.70802722 -10.29297983 36.70802722 -12.2890625 36.734375 C-13.00320313 36.73179687 -13.71734375 36.72921875 -14.453125 36.7265625 C-15.52820313 36.73816406 -15.52820313 36.73816406 -16.625 36.75 C-17.34945312 36.74226563 -18.07390625 36.73453125 -18.8203125 36.7265625 C-25.89954534 36.75221189 -31.41646184 38.48565 -37 43 C-41.78656334 49.17110646 -44.22106832 55.42582197 -44.31884766 63.28076172 C-44.33871735 64.5015744 -44.35858704 65.72238708 -44.37905884 66.98019409 C-44.39638565 68.93519333 -44.39638565 68.93519333 -44.4140625 70.9296875 C-44.4327915 72.28875888 -44.45236619 73.64781885 -44.4727478 75.00686646 C-44.52389241 78.56759892 -44.56361204 82.128369 -44.60089111 85.68927002 C-44.6410422 89.32939795 -44.69197916 92.96937419 -44.7421875 96.609375 C-44.83974941 103.73952455 -44.91940607 110.86955771 -45 118 C-58.53 118 -72.06 118 -86 118 C-86 80.05 -86 42.1 -86 3 C-72.8 3 -59.6 3 -46 3 C-46 8.94 -46 14.88 -46 21 C-45.34 21 -44.68 21 -44 21 C-43.74089844 20.25621094 -43.48179687 19.51242187 -43.21484375 18.74609375 C-39.50838368 10.36782549 -31.02577973 5.60922639 -23 2 C-14.99715573 -0.93437623 -9.27603439 0 0 0 Z " fill="#013D37" transform="translate(999,292)"/>
<path d="M0 0 C13.53 0 27.06 0 41 0 C41 37.95 41 75.9 41 115 C27.47 115 13.94 115 0 115 C0 77.05 0 39.1 0 0 Z " fill="#023E37" transform="translate(425,72)"/>
<path d="M0 0 C13.86 0 27.72 0 42 0 C42 36.63 42 73.26 42 111 C28.14 111 14.28 111 0 111 C0 74.37 0 37.74 0 0 Z " fill="#003D37" transform="translate(1490,241)"/>
<path d="M0 0 C6.78079282 3.86233959 12.05723594 9.29670781 14.5625 16.8125 C15.26634043 26.53934391 15.20058555 33.85803474 9.08984375 41.703125 C4.17080766 47.23849421 -1.67904971 50.10457105 -8.984375 51.19140625 C-16.87306279 51.57114122 -23.09160115 48.85818932 -29.25 44.0625 C-33.95477081 39.77253497 -37.0353741 33.58673882 -37.7109375 27.24609375 C-38.00431382 18.59149237 -36.45590739 12.26805631 -30.5703125 5.7421875 C-21.83770226 -2.37880023 -11.11111624 -5.25705052 0 0 Z " fill="#023E37" transform="translate(1522.4375,364.1875)"/>
<path d="M0 0 C5.99910572 4.33268747 9.23850828 9.86022585 11 17 C12.16166764 25.49095211 10.40091584 31.91875 5.6796875 38.97265625 C2.22573467 43.41749718 -1.48385058 46.60025638 -7 48 C-14.40386252 48.74038625 -22.77980768 49.50505446 -29.328125 45.390625 C-36.1533917 39.713534 -40.41837903 33.79439894 -41.3125 24.88671875 C-41.65300286 15.6612195 -39.97751691 10.04585585 -33.8125 3.25 C-24.05623162 -5.80199423 -11.44789695 -6.58351753 0 0 Z " fill="#FBCD01" transform="translate(1098,330)"/>
<path d="M0 0 C5.99910572 4.33268747 9.23850828 9.86022585 11 17 C12.16166764 25.49095211 10.40091584 31.91875 5.6796875 38.97265625 C2.22573467 43.41749718 -1.48385058 46.60025638 -7 48 C-14.40386252 48.74038625 -22.77980768 49.50505446 -29.328125 45.390625 C-36.1533917 39.713534 -40.41837903 33.79439894 -41.3125 24.88671875 C-41.65300286 15.6612195 -39.97751691 10.04585585 -33.8125 3.25 C-24.05623162 -5.80199423 -11.44789695 -6.58351753 0 0 Z " fill="#FBCD01" transform="translate(834,330)"/>
<path d="M0 0 C5.99910572 4.33268747 9.23850828 9.86022585 11 17 C12.16166764 25.49095211 10.40091584 31.91875 5.6796875 38.97265625 C2.22573467 43.41749718 -1.48385058 46.60025638 -7 48 C-14.40386252 48.74038625 -22.77980768 49.50505446 -29.328125 45.390625 C-36.1533917 39.713534 -40.41837903 33.79439894 -41.3125 24.88671875 C-41.65300286 15.6612195 -39.97751691 10.04585585 -33.8125 3.25 C-24.05623162 -5.80199423 -11.44789695 -6.58351753 0 0 Z " fill="#FBCD01" transform="translate(1097,107)"/>
<path d="M0 0 C6.35938828 3.86975542 12.06436814 10.19310441 14.4375 17.3125 C15.44783841 27.03221126 14.57390937 34.49897875 8.4375 42.3125 C2.56011751 48.10825218 -3.22567616 50.36773735 -11.4375 50.625 C-19.29408018 50.45990499 -25.16241895 48.58445103 -30.953125 43.15234375 C-36.91944255 36.33162635 -38.34476861 29.52556396 -37.9765625 20.58203125 C-36.96495981 12.59418737 -32.70345446 7.3138959 -26.5625 2.3125 C-19.25888011 -3.25138122 -8.27565499 -3.84731589 0 0 Z " fill="#FBCD01" transform="translate(1401.5625,327.6875)"/>
<path d="M0 0 C6.20525684 4.10962185 10.10554638 9.4514385 11.671875 16.76953125 C12.76991377 24.89501813 11.2674777 30.9915946 6.671875 37.76953125 C2.08105942 43.43865467 -2.64167967 47.31111318 -10.09765625 48.23828125 C-11.44491439 48.27265261 -12.79298951 48.28235519 -14.140625 48.26953125 C-14.84695068 48.26308594 -15.55327637 48.25664062 -16.28100586 48.25 C-24.77497303 47.95336979 -29.58311183 44.87405035 -35.265625 38.83203125 C-40.59687744 32.69415906 -40.77646364 25.99718081 -40.63671875 18.1796875 C-39.98378665 10.96437451 -36.53290514 6.16693341 -31.30078125 1.3125 C-21.30023717 -6.50970775 -10.80584824 -5.97680984 0 0 Z " fill="#FBCD01" transform="translate(940.328125,107.23046875)"/>
<path d="M0 0 C7.26217378 3.19579726 10.67566557 8.27320613 14.13671875 15.1953125 C14.83028639 22.58578739 14.80934824 29.15983274 10.13671875 35.1953125 C5.91587846 39.56319025 1.60504786 43.81863924 -4.6328125 44.49609375 C-13.4174009 44.529924 -19.69338367 43.01198686 -26.28515625 36.984375 C-30.95095299 31.69493216 -32.58312152 25.57083803 -32.23828125 18.609375 C-31.12206002 11.42370081 -27.30083697 7.20732219 -21.86328125 2.640625 C-15.31654857 -2.09041229 -7.69880081 -2.16364661 0 0 Z " fill="#023E37" transform="translate(453.86328125,5.8046875)"/>
<path d="M0 0 C3.96896078 2.80666944 7.39025569 5.93259198 9.375 10.4375 C9.87 13.4075 9.87 13.4075 10.375 16.4375 C-4.805 16.4375 -19.985 16.4375 -35.625 16.4375 C-34.51954355 8.69930488 -32.85083057 5.0124325 -26.9765625 0.04296875 C-19.1775273 -4.77608575 -7.83329269 -4.3739793 0 0 Z " fill="#F3C803" transform="translate(533.625,319.5625)"/>
<path d="M0 0 C3.96896078 2.80666944 7.39025569 5.93259198 9.375 10.4375 C9.87 13.4075 9.87 13.4075 10.375 16.4375 C-4.805 16.4375 -19.985 16.4375 -35.625 16.4375 C-34.51954355 8.69930488 -32.85083057 5.0124325 -26.9765625 0.04296875 C-19.1775273 -4.77608575 -7.83329269 -4.3739793 0 0 Z " fill="#F3C803" transform="translate(788.625,96.5625)"/>
<path d="M0 0 C1.21236328 0.01353516 1.21236328 0.01353516 2.44921875 0.02734375 C3.37154297 0.04474609 3.37154297 0.04474609 4.3125 0.0625 C3.9825 1.0525 3.6525 2.0425 3.3125 3.0625 C-2.75565522 4.29149346 -8.48645188 5.33810214 -14.6875 5.0625 C-14.3575 4.0725 -14.0275 3.0825 -13.6875 2.0625 C-12.759375 1.918125 -11.83125 1.77375 -10.875 1.625 C-1.54017857 -0.02232143 -1.54017857 -0.02232143 0 0 Z " fill="#DBBB08" transform="translate(380.6875,595.9375)"/>
<path d="M0 0 C0 0.33 0 0.66 0 1 C2.31 1.33 4.62 1.66 7 2 C7 2.33 7 2.66 7 3 C-2.9 3.33 -12.8 3.66 -23 4 C-23 3.67 -23 3.34 -23 3 C-20.10496617 2.49494737 -17.20912047 1.9957978 -14.3125 1.5 C-13.08756836 1.28537109 -13.08756836 1.28537109 -11.83789062 1.06640625 C-7.85021752 0.38834038 -4.06269596 -0.19858392 0 0 Z " fill="#C4AE0D" transform="translate(589,555)"/>
<path d="M0 0 C1.32 0.33 2.64 0.66 4 1 C4 1.99 4 2.98 4 4 C0.78548731 5.60725635 -2.43612536 5.05748185 -6 5 C-5.67 4.01 -5.34 3.02 -5 2 C-3.68 2 -2.36 2 -1 2 C-0.67 1.34 -0.34 0.68 0 0 Z " fill="#D9BA08" transform="translate(360,598)"/>
<path d="M0 0 C-0.33 0.66 -0.66 1.32 -1 2 C-4.98375661 3.17169312 -8.87439224 3.08089427 -13 3 C-4.58823529 -1.52941176 -4.58823529 -1.52941176 0 0 Z " fill="#E4C006" transform="translate(653,525)"/>
</svg>
